<svg width="24" height="25" viewBox="0 0 24 25" fill="none" xmlns="http://www.w3.org/2000/svg">
<path d="M18.9998 4.69238H4.99976C4.20411 4.69238 3.44104 5.00845 2.87844 5.57106C2.31583 6.13367 1.99976 6.89673 1.99976 7.69238V17.6924C1.99976 18.488 2.31583 19.2511 2.87844 19.8137C3.44104 20.3763 4.20411 20.6924 4.99976 20.6924H18.9998C19.7954 20.6924 20.5585 20.3763 21.1211 19.8137C21.6837 19.2511 21.9998 18.488 21.9998 17.6924V7.69238C21.9998 6.89673 21.6837 6.13367 21.1211 5.57106C20.5585 5.00845 19.7954 4.69238 18.9998 4.69238ZM18.3298 6.69238L11.9998 11.4424L5.66976 6.69238H18.3298ZM18.9998 18.6924H4.99976C4.73454 18.6924 4.48019 18.587 4.29265 18.3995C4.10511 18.212 3.99976 17.9576 3.99976 17.6924V7.94238L11.3998 13.4924C11.5729 13.6222 11.7834 13.6924 11.9998 13.6924C12.2161 13.6924 12.4267 13.6222 12.5998 13.4924L19.9998 7.94238V17.6924C19.9998 17.9576 19.8944 18.212 19.7069 18.3995C19.5193 18.587 19.265 18.6924 18.9998 18.6924Z" fill="#D6D3D1"/>
</svg>
