<svg width="228" height="56" viewBox="0 0 228 56" fill="none" xmlns="http://www.w3.org/2000/svg">
<path d="M74.8733 20.8307H67.3972V16.7896H86.7974V20.8307H79.3213V40.3144H74.8733V20.8307Z" fill="white"/>
<path d="M86.0388 47.2164V23.7471H89.8813L90.1527 26.0315C90.7766 25.1942 91.5911 24.517 92.5292 24.0558C93.4672 23.5946 94.5018 23.3626 95.5475 23.3791C100.664 23.3791 104.068 27.1703 104.068 32.0446C104.068 36.919 101.005 40.7172 95.7145 40.7172C93.9673 40.7172 91.3709 40.1756 90.1945 38.3633V47.2164H86.0388ZM99.9607 32.0238C99.9138 30.8074 99.3965 29.6564 98.5172 28.8124C97.6379 27.9683 96.465 27.4968 95.2447 27.4968C94.0243 27.4968 92.8515 27.9683 91.9722 28.8124C91.0928 29.6564 90.5755 30.8074 90.5286 32.0238C90.5042 32.6568 90.6082 33.2882 90.8342 33.8801C91.0602 34.4721 91.4037 35.0125 91.844 35.4689C92.2843 35.9254 92.8125 36.2885 93.3968 36.5365C93.9811 36.7845 94.6096 36.9123 95.2447 36.9123C95.8797 36.9123 96.5082 36.7845 97.0925 36.5365C97.6769 36.2885 98.205 35.9254 98.6453 35.4689C99.0857 35.0125 99.4291 34.4721 99.6551 33.8801C99.8812 33.2882 99.9851 32.6568 99.9607 32.0238Z" fill="white"/>
<path d="M110.639 33.4889C110.91 35.572 112.692 37.0162 115.588 37.0162C117.106 37.0162 119.069 36.4469 120.036 35.4748L122.695 38.0578C120.948 39.877 118.08 40.7519 115.56 40.7519C109.831 40.7519 106.427 37.2176 106.427 31.9127C106.427 26.8717 109.866 23.2402 115.254 23.2402C120.823 23.2402 124.303 26.6703 123.642 33.4889H110.639ZM119.688 30.0935C119.417 27.9479 117.732 26.8717 115.372 26.8717C113.152 26.8717 111.328 27.9479 110.729 30.0935H119.688Z" fill="white"/>
<path d="M196.579 33.4889C196.85 35.572 198.632 37.0162 201.528 37.0162C203.045 37.0162 205.008 36.4469 205.976 35.4748L208.607 38.0578C206.853 39.877 203.992 40.7519 201.465 40.7519C195.736 40.7519 192.305 37.2176 192.305 31.9405C192.305 26.8994 195.743 23.2679 201.131 23.2679C206.7 23.2679 210.18 26.6981 209.484 33.5167L196.579 33.4889ZM205.628 30.0935C205.356 27.9479 203.672 26.8717 201.312 26.8717C199.092 26.8717 197.275 27.9479 196.669 30.0935H205.628Z" fill="white"/>
<path d="M217.086 27.7743H210.89V23.7471H227.729V27.7743H221.541V40.3144H217.086V27.7743Z" fill="white"/>
<path d="M161.147 43.4738V40.3769H148.785V43.4738H144.915V37.287H146.307L146.349 37.2245C147.126 36.0031 147.759 34.6959 148.235 33.3292C148.77 31.7939 149.186 30.22 149.481 28.6214C149.787 27.0105 150.01 25.3857 150.177 23.7609H162.554V37.287H165.039V43.4738H161.147ZM153.762 27.198C153.595 28.4201 153.386 29.6213 153.142 30.7601C152.902 31.8661 152.593 32.956 152.217 34.0236C151.867 35.0688 151.431 36.0837 150.915 37.0579L150.804 37.2662H158.196V27.08H153.79L153.762 27.198Z" fill="white"/>
<path d="M138.935 23.7262V30.0935H130.624V23.7262H126.517V40.3631H130.624V33.4889H138.935V40.3631H143.049V23.7262H138.935Z" fill="white"/>
<path d="M172.535 29.9268L178.208 40.3422H179.886L185.538 29.9754H185.552V40.3422H190V23.7471H184.912L179.044 34.3013L173.211 23.7471H168.094V40.3422H172.535V29.9268Z" fill="white"/>
<path d="M35.753 0H20.7522C9.39193 0 0.182617 9.18635 0.182617 20.5183V35.4817C0.182617 46.8136 9.39193 56 20.7522 56H35.753C47.1133 56 56.3226 46.8136 56.3226 35.4817V20.5183C56.3226 9.18635 47.1133 0 35.753 0Z" fill="#FAFAF9"/>
<path d="M33.1705 25.9135H24.0168V45.2583H33.1705V25.9135Z" fill="#FFD166"/>
<path d="M13.4778 25.7676V17.1715L43.7161 11.8388V20.435L13.4778 25.7676Z" fill="black"/>
</svg>
