<svg width="65" height="64" viewBox="0 0 65 64" fill="none" xmlns="http://www.w3.org/2000/svg">
<g clip-path="url(#clip0_160_361)">
<path d="M64.5 56H57.4062C58.4062 57.1042 59.1667 58.3333 59.6875 59.6875C60.2083 61.0417 60.4792 62.4792 60.5 64H56.5C56.5 62.8958 56.2917 61.8646 55.875 60.9063C55.4583 59.9479 54.8854 59.0938 54.1562 58.3438C53.4271 57.5938 52.5833 57.0208 51.625 56.625C50.6667 56.2292 49.625 56.0208 48.5 56C47.3958 56 46.3646 56.2083 45.4062 56.625C44.4479 57.0417 43.5938 57.6146 42.8438 58.3438C42.0938 59.0729 41.5208 59.9167 41.125 60.875C40.7292 61.8333 40.5208 62.875 40.5 64H36.5C36.5 62.8958 36.2917 61.8646 35.875 60.9063C35.4583 59.9479 34.8854 59.0938 34.1562 58.3438C33.4271 57.5938 32.5833 57.0208 31.625 56.625C30.6667 56.2292 29.625 56.0208 28.5 56C27.3958 56 26.3646 56.2083 25.4062 56.625C24.4479 57.0417 23.5938 57.6146 22.8438 58.3438C22.0938 59.0729 21.5208 59.9167 21.125 60.875C20.7292 61.8333 20.5208 62.875 20.5 64H16.5C16.5 62.9167 16.6458 61.8542 16.9375 60.8125C17.2292 59.7708 17.6354 58.8021 18.1562 57.9063C18.6771 57.0104 19.3333 56.1771 20.125 55.4063C20.9167 54.6354 21.7812 54 22.7188 53.5C22.0104 52.7708 21.4688 51.9271 21.0938 50.9688C20.7188 50.0104 20.5208 49.0208 20.5 48C20.5 46.5625 20.8542 45.2396 21.5625 44.0313C22.2708 42.8229 23.25 41.8542 24.5 41.125V32C24.5 31.375 24.6354 30.7813 24.9062 30.2188C25.1771 29.6563 25.5729 29.1875 26.0938 28.8125C24.9479 27.2917 23.5417 26.1146 21.875 25.2813C20.2083 24.4479 18.4167 24.0208 16.5 24C14.8333 24 13.2812 24.3125 11.8438 24.9375C10.4062 25.5625 9.13542 26.4167 8.03125 27.5C6.92708 28.5833 6.0625 29.8646 5.4375 31.3438C4.8125 32.8229 4.5 34.375 4.5 36H0.5C0.5 34.4792 0.708333 33.0104 1.125 31.5938C1.54167 30.1771 2.13542 28.8333 2.90625 27.5625C3.67708 26.2917 4.625 25.1667 5.75 24.1875C6.875 23.2083 8.10417 22.3646 9.4375 21.6563C7.875 20.5313 6.66667 19.125 5.8125 17.4375C4.95833 15.75 4.52083 13.9375 4.5 12C4.5 10.3542 4.8125 8.80208 5.4375 7.34375C6.0625 5.88542 6.91667 4.61458 8 3.53125C9.08333 2.44792 10.3542 1.58333 11.8125 0.9375C13.2708 0.291667 14.8333 -0.0208333 16.5 1.16415e-10C18.1458 1.16415e-10 19.6979 0.3125 21.1562 0.9375C22.6146 1.5625 23.8854 2.41667 24.9688 3.5C26.0521 4.58333 26.9167 5.86458 27.5625 7.34375C28.2083 8.82292 28.5208 10.375 28.5 12C28.5 13.9375 28.0729 15.75 27.2188 17.4375C26.3646 19.125 25.1458 20.5417 23.5625 21.6875C24.9792 22.3958 26.2604 23.2813 27.4062 24.3438C28.5521 25.4063 29.5312 26.625 30.3438 28H41.5C42.1458 28 42.7083 27.9063 43.1875 27.7188C43.6667 27.5313 44.1146 27.2813 44.5312 26.9688C44.9479 26.6563 45.375 26.3333 45.8125 26C46.25 25.6667 46.7292 25.3438 47.25 25.0313C47.7708 24.7188 48.375 24.4792 49.0625 24.3125C49.75 24.1458 50.5625 24.0417 51.5 24H60.5C61.0625 24 61.5833 24.1042 62.0625 24.3125C62.5417 24.5208 62.9583 24.8021 63.3125 25.1563C63.6667 25.5104 63.9583 25.9375 64.1875 26.4375C64.4167 26.9375 64.5208 27.4583 64.5 28V56ZM16.5 20C17.6042 20 18.6354 19.7917 19.5938 19.375C20.5521 18.9583 21.4062 18.3854 22.1562 17.6563C22.9062 16.9271 23.4792 16.0833 23.875 15.125C24.2708 14.1667 24.4792 13.125 24.5 12C24.5 10.8958 24.2917 9.86458 23.875 8.90625C23.4583 7.94792 22.8854 7.09375 22.1562 6.34375C21.4271 5.59375 20.5833 5.02083 19.625 4.625C18.6667 4.22917 17.625 4.02083 16.5 4C15.3958 4 14.3646 4.20833 13.4062 4.625C12.4479 5.04167 11.5938 5.61458 10.8438 6.34375C10.0938 7.07292 9.52083 7.91667 9.125 8.875C8.72917 9.83333 8.52083 10.875 8.5 12C8.5 13.1042 8.70833 14.1354 9.125 15.0938C9.54167 16.0521 10.1146 16.9063 10.8438 17.6563C11.5729 18.4063 12.4167 18.9792 13.375 19.375C14.3333 19.7708 15.375 19.9792 16.5 20ZM28.5 52C29.0625 52 29.5833 51.8958 30.0625 51.6875C30.5417 51.4792 30.9583 51.1979 31.3125 50.8438C31.6667 50.4896 31.9583 50.0625 32.1875 49.5625C32.4167 49.0625 32.5208 48.5417 32.5 48C32.5 47.4375 32.3958 46.9167 32.1875 46.4375C31.9792 45.9583 31.6979 45.5417 31.3438 45.1875C30.9896 44.8333 30.5625 44.5417 30.0625 44.3125C29.5625 44.0833 29.0417 43.9792 28.5 44C27.9375 44 27.4167 44.1042 26.9375 44.3125C26.4583 44.5208 26.0417 44.8021 25.6875 45.1563C25.3333 45.5104 25.0417 45.9375 24.8125 46.4375C24.5833 46.9375 24.4792 47.4583 24.5 48C24.5 48.5625 24.6042 49.0833 24.8125 49.5625C25.0208 50.0417 25.3021 50.4583 25.6562 50.8125C26.0104 51.1667 26.4375 51.4583 26.9375 51.6875C27.4375 51.9167 27.9583 52.0208 28.5 52ZM48.5 52C49.0625 52 49.5833 51.8958 50.0625 51.6875C50.5417 51.4792 50.9583 51.1979 51.3125 50.8438C51.6667 50.4896 51.9583 50.0625 52.1875 49.5625C52.4167 49.0625 52.5208 48.5417 52.5 48C52.5 47.4375 52.3958 46.9167 52.1875 46.4375C51.9792 45.9583 51.6979 45.5417 51.3438 45.1875C50.9896 44.8333 50.5625 44.5417 50.0625 44.3125C49.5625 44.0833 49.0417 43.9792 48.5 44C47.9375 44 47.4167 44.1042 46.9375 44.3125C46.4583 44.5208 46.0417 44.8021 45.6875 45.1563C45.3333 45.5104 45.0417 45.9375 44.8125 46.4375C44.5833 46.9375 44.4792 47.4583 44.5 48C44.5 48.5625 44.6042 49.0833 44.8125 49.5625C45.0208 50.0417 45.3021 50.4583 45.6562 50.8125C46.0104 51.1667 46.4375 51.4583 46.9375 51.6875C47.4375 51.9167 47.9583 52.0208 48.5 52ZM60.5 36H51.5C50.5625 36 49.75 35.9063 49.0625 35.7188C48.375 35.5313 47.7708 35.2813 47.25 34.9688C46.7292 34.6563 46.2604 34.3333 45.8438 34C45.4271 33.6667 45 33.3438 44.5625 33.0313C44.125 32.7188 43.6667 32.4792 43.1875 32.3125C42.7083 32.1458 42.1458 32.0417 41.5 32H28.5V40C29.6042 40 30.6354 40.2083 31.5938 40.625C32.5521 41.0417 33.4062 41.6146 34.1562 42.3438C34.9062 43.0729 35.4792 43.9167 35.875 44.875C36.2708 45.8333 36.4792 46.875 36.5 48C36.5 49.0208 36.3125 50.0104 35.9375 50.9688C35.5625 51.9271 35.0104 52.7708 34.2812 53.5C36.0104 54.4583 37.4167 55.75 38.5 57.375C39.5833 55.75 40.9896 54.4583 42.7188 53.5C42.0104 52.7708 41.4688 51.9271 41.0938 50.9688C40.7188 50.0104 40.5208 49.0208 40.5 48C40.5 46.8958 40.7083 45.8646 41.125 44.9063C41.5417 43.9479 42.1146 43.0938 42.8438 42.3438C43.5729 41.5938 44.4167 41.0208 45.375 40.625C46.3333 40.2292 47.375 40.0208 48.5 40C49.6042 40 50.6354 40.2083 51.5938 40.625C52.5521 41.0417 53.4062 41.6146 54.1562 42.3438C54.9062 43.0729 55.4792 43.9167 55.875 44.875C56.2708 45.8333 56.4792 46.875 56.5 48C56.5 48.7083 56.4062 49.3958 56.2188 50.0625C56.0312 50.7292 55.75 51.375 55.375 52H60.5V36ZM60.5 28H51.5C51.0208 28 50.5938 28.0521 50.2188 28.1563C49.8438 28.2604 49.4896 28.3958 49.1562 28.5625C48.8229 28.7292 48.5 28.9375 48.1875 29.1875C47.875 29.4375 47.5417 29.7083 47.1875 30C47.5208 30.2917 47.8438 30.5521 48.1562 30.7813C48.4688 31.0104 48.8021 31.2188 49.1562 31.4063C49.5104 31.5938 49.8646 31.7396 50.2188 31.8438C50.5729 31.9479 51 32 51.5 32H60.5V28Z" fill="#1C1C1C"/>
</g>
<defs>
<clipPath id="clip0_160_361">
<rect width="64" height="64" fill="white" transform="translate(0.5)"/>
</clipPath>
</defs>
</svg>
