<svg width="24" height="25" viewBox="0 0 24 25" fill="none" xmlns="http://www.w3.org/2000/svg">
<g clip-path="url(#clip0_99_181)">
<path fill-rule="evenodd" clip-rule="evenodd" d="M15.1604 0.698585C14.6115 0.637606 14.1171 1.03315 14.0561 1.58206C13.9951 2.13097 14.3907 2.62538 14.9396 2.68636C16.7434 2.88674 18.4254 3.69451 19.7096 4.97703C20.9937 6.25955 21.8036 7.94059 22.0062 9.74413C22.0679 10.293 22.5628 10.6879 23.1117 10.6262C23.6605 10.5645 24.0554 10.0696 23.9937 9.52081C23.7404 7.26637 22.7281 5.16507 21.1229 3.56193C19.5177 1.95878 17.4152 0.94907 15.1604 0.698585ZM15.2415 4.71098C14.6994 4.60522 14.1743 4.95891 14.0685 5.50098C13.9627 6.04304 14.3164 6.56821 14.8585 6.67396C15.6399 6.82642 16.358 7.20857 16.921 7.77151C17.4839 8.33446 17.866 9.05258 18.0185 9.83396C18.1243 10.376 18.6494 10.7297 19.1915 10.624C19.7336 10.5182 20.0872 9.99304 19.9815 9.45098C19.7528 8.27889 19.1796 7.20171 18.3352 6.3573C17.4907 5.51289 16.4136 4.93966 15.2415 4.71098ZM8.1193 5.54892C8.04921 5.06625 7.60777 4.68763 7.11981 4.69243L7.10996 4.69253L4.1105 4.69248C3.55273 4.69326 3.06884 5.21639 3.11535 5.77601C4.04729 14.5098 11.2273 21.668 19.918 22.6172C20.3328 22.652 20.7506 22.4023 20.9166 22.0221C21.0641 21.6842 21.1139 21.207 21.0966 20.5676C21.0889 20.2847 21.0697 19.9987 21.0495 19.6979L21.0435 19.6093C21.0219 19.2866 21 18.9404 21 18.6125C21 18.6042 21.0001 18.5959 21.0003 18.5877C21.0125 18.0947 20.6325 17.6446 20.1449 17.5733C19.1113 17.4373 18.0962 17.1841 17.1199 16.8192L17.1181 16.8185C16.7684 16.6871 16.331 16.7799 16.0647 17.042L14.7971 18.3096C14.4788 18.6279 13.987 18.6943 13.5957 18.4718C10.9357 16.9592 8.7332 14.7568 7.22067 12.0968C6.99816 11.7054 7.06455 11.2137 7.38286 10.8954C7.5463 10.7319 7.69944 10.5864 7.84235 10.4505C8.17855 10.1309 8.45817 9.86507 8.68221 9.54705C8.94517 9.17379 8.99805 8.90459 8.87391 8.57434L8.87325 8.57258C8.50813 7.5957 8.25624 6.58099 8.1193 5.54892ZM7.10555 2.69248C8.59627 2.68054 9.89142 3.79593 10.1001 5.27253L10.1014 5.28132C10.2186 6.1673 10.4344 7.03667 10.7465 7.87199C11.1755 9.01459 10.8245 9.97884 10.3172 10.6989C10.0463 11.0834 9.68395 11.4556 9.35879 11.7705C10.5336 13.6091 12.0957 15.1695 13.9358 16.3425L14.6529 15.6254L14.6568 15.6214C15.478 14.8094 16.7399 14.5401 17.8211 14.9461C18.6568 15.2584 19.5257 15.4749 20.4101 15.591L20.4197 15.5922C21.9104 15.8025 23.0301 17.1193 23 18.6231C23.0004 18.8722 23.0174 19.1515 23.039 19.4757L23.0452 19.5674C23.0651 19.862 23.087 20.1879 23.0959 20.5134C23.1149 21.2145 23.0813 22.0625 22.7496 22.8223C22.2387 23.9925 21.0063 24.7252 19.7289 24.6083L19.7119 24.6066C10.0814 23.5601 2.15351 15.6581 1.12556 5.97808L1.12402 5.96248C0.966679 4.22132 2.38296 2.6941 4.10902 2.69248H7.10555Z" fill="#D6D3D1"/>
</g>
<defs>
<clipPath id="clip0_99_181">
<rect width="24" height="24" fill="white" transform="translate(0 0.692383)"/>
</clipPath>
</defs>
</svg>
