<svg width="128" height="128" viewBox="0 0 128 128" fill="none" xmlns="http://www.w3.org/2000/svg">
    <path d="M26.6665 21.7385C21.4665 22.2505 17.9678 23.4078 15.3545 26.0212C10.6665 30.7038 10.6665 38.2505 10.6665 53.3332V74.6665C10.6665 89.7492 10.6665 97.2958 15.3545 101.979C17.9678 104.592 21.4665 105.749 26.6665 106.261M101.333 21.7385C106.533 22.2505 110.032 23.4078 112.645 26.0212C117.333 30.7038 117.333 38.2505 117.333 53.3332V74.6665C117.333 89.7492 117.333 97.2958 112.645 101.979C110.032 104.592 106.533 105.749 101.333 106.261M26.6665 42.6665C26.6665 27.5838 26.6665 20.0372 31.3545 15.3545C36.0372 10.6665 43.5838 10.6665 58.6665 10.6665H69.3332C84.4158 10.6665 91.9625 10.6665 96.6452 15.3545C101.333 20.0372 101.333 27.5838 101.333 42.6665V85.3332C101.333 100.416 101.333 107.962 96.6452 112.645C91.9625 117.333 84.4158 117.333 69.3332 117.333H58.6665C43.5838 117.333 36.0372 117.333 31.3545 112.645C26.6665 107.962 26.6665 100.416 26.6665 85.3332V42.6665Z" stroke="white" stroke-width="8"/>
    <path d="M48 69.3333H80M48 48H80M48 90.6667H64" stroke="white" stroke-width="8" stroke-linecap="round"/>
</svg>
