<svg width="128" height="128" viewBox="0 0 128 128" fill="none" xmlns="http://www.w3.org/2000/svg">
    <path d="M37.3335 6.6665C32.0292 6.6665 26.9421 8.77364 23.1914 12.5244C19.4406 16.2751 17.3335 21.3622 17.3335 26.6665V101.333C17.3335 106.638 19.4406 111.725 23.1914 115.475L25.99 112.677L23.1914 115.475C26.9421 119.226 32.0292 121.333 37.3335 121.333H90.6668C95.9712 121.333 101.058 119.226 104.809 115.475C108.56 111.725 110.667 106.638 110.667 101.333V26.6665C110.667 21.3622 108.56 16.2751 104.809 12.5244C101.058 8.77364 95.9712 6.6665 90.6668 6.6665H37.3335ZM41.3335 31.9998C41.3335 31.6462 41.474 31.3071 41.724 31.057C41.9741 30.807 42.3132 30.6665 42.6668 30.6665H85.3335C85.6871 30.6665 86.0263 30.807 86.2763 31.057C86.5264 31.3071 86.6668 31.6462 86.6668 31.9998V53.3332C86.6668 53.6868 86.5264 54.0259 86.2763 54.276C86.0263 54.526 85.6871 54.6665 85.3335 54.6665H42.6668C42.3132 54.6665 41.9741 54.526 41.724 54.276L39.1132 56.8868L41.724 54.276C41.474 54.0259 41.3335 53.6868 41.3335 53.3332V31.9998ZM41.724 73.7237C41.9741 73.4737 42.3132 73.3332 42.6668 73.3332H42.7202C43.0738 73.3332 43.4129 73.4737 43.663 73.7237C43.913 73.9738 44.0535 74.3129 44.0535 74.6665C44.0535 75.0201 43.913 75.3593 43.663 75.6093C43.4129 75.8594 43.0738 75.9998 42.7202 75.9998H42.6668C42.3132 75.9998 41.9741 75.8594 41.724 75.6093C41.474 75.3593 41.3335 75.0201 41.3335 74.6665C41.3335 74.3129 41.474 73.9738 41.724 73.7237ZM62.6668 74.6665C62.6668 74.3129 62.8073 73.9737 63.0574 73.7237C63.3074 73.4737 63.6465 73.3332 64.0002 73.3332H64.0535C64.4071 73.3332 64.7463 73.4737 64.9963 73.7237C65.2464 73.9738 65.3868 74.3129 65.3868 74.6665C65.3868 75.0201 65.2464 75.3593 64.9963 75.6093C64.7463 75.8594 64.4071 75.9998 64.0535 75.9998H64.0002C63.6465 75.9998 63.3074 75.8594 63.0574 75.6093C62.8073 75.3593 62.6668 75.0201 62.6668 74.6665ZM63.0574 89.7237C63.3074 89.4737 63.6465 89.3332 64.0002 89.3332H64.0535C64.4071 89.3332 64.7463 89.4737 64.9963 89.7237C65.2464 89.9737 65.3868 90.3129 65.3868 90.6665C65.3868 91.0201 65.2464 91.3593 64.9963 91.6093C64.7463 91.8594 64.4071 91.9998 64.0535 91.9998H64.0002C63.6465 91.9998 63.3074 91.8594 63.0574 91.6093C62.8073 91.3593 62.6668 91.0201 62.6668 90.6665C62.6668 90.3129 62.8073 89.9737 63.0574 89.7237ZM41.3335 90.6665C41.3335 90.3129 41.474 89.9737 41.724 89.7237C41.9741 89.4737 42.3132 89.3332 42.6668 89.3332H42.7202C43.0738 89.3332 43.4129 89.4737 43.663 89.7237C43.913 89.9737 44.0535 90.3129 44.0535 90.6665C44.0535 91.0201 43.913 91.3593 43.663 91.6093C43.4129 91.8594 43.0738 91.9998 42.7202 91.9998H42.6668C42.3132 91.9998 41.9741 91.8594 41.724 91.6093C41.474 91.3593 41.3335 91.0201 41.3335 90.6665ZM86.2763 73.7237C86.5264 73.9737 86.6668 74.3129 86.6668 74.6665V90.6665C86.6668 91.0201 86.5264 91.3593 86.2763 91.6093C86.0263 91.8594 85.6871 91.9998 85.3335 91.9998C84.9799 91.9998 84.6407 91.8594 84.3907 91.6093C84.1406 91.3593 84.0002 91.0201 84.0002 90.6665V74.6665C84.0002 74.3129 84.1406 73.9738 84.3907 73.7237C84.6407 73.4736 84.9799 73.3332 85.3335 73.3332C85.6871 73.3332 86.0263 73.4737 86.2763 73.7237Z" stroke="white" stroke-width="8"/>
    <circle cx="64.25" cy="91" r="4" fill="white"/>
    <circle cx="64.25" cy="75" r="4" fill="white"/>
    <circle cx="42.25" cy="75" r="4" fill="white"/>
    <circle cx="42.25" cy="91" r="4" fill="white"/>
</svg>
