<svg width="128" height="128" viewBox="0 0 128 128" fill="none" xmlns="http://www.w3.org/2000/svg">
    <path d="M14.6665 10.6665C14.6665 9.60564 14.2451 8.58822 13.4949 7.83808C12.7448 7.08793 11.7274 6.6665 10.6665 6.6665C9.60564 6.6665 8.58822 7.08793 7.83808 7.83808C7.08793 8.58822 6.6665 9.60564 6.6665 10.6665V64.3038C6.6665 76.6185 6.6665 86.2665 7.67984 93.7972C8.7145 101.499 10.8798 107.579 15.6478 112.352C20.4212 117.125 26.5012 119.285 34.2078 120.32C41.7332 121.333 51.3812 121.333 63.6958 121.333H117.333C118.394 121.333 119.411 120.912 120.162 120.162C120.912 119.411 121.333 118.394 121.333 117.333C121.333 116.272 120.912 115.255 120.162 114.505C119.411 113.755 118.394 113.333 117.333 113.333H63.9998C51.3172 113.333 42.2078 113.323 35.2745 112.395C28.4532 111.477 24.3412 109.728 21.3012 106.693C18.2665 103.653 16.5225 99.5465 15.6052 92.7252C14.6772 85.7918 14.6665 76.6825 14.6665 63.9998V10.6665Z" fill="white"/>
    <path d="M104.469 39.8185C104.807 39.4082 105.06 38.9347 105.213 38.4257C105.365 37.9167 105.415 37.3824 105.359 36.8539C105.303 36.3254 105.142 35.8134 104.886 35.3478C104.63 34.8822 104.284 34.4723 103.867 34.142C103.451 33.8118 102.973 33.5678 102.461 33.4243C101.949 33.2809 101.414 33.2409 100.887 33.3066C100.36 33.3723 99.8505 33.5424 99.3897 33.807C98.9288 34.0717 98.5253 34.4255 98.2027 34.8478L81.5734 55.7865C80.2667 57.4345 79.408 58.5065 78.6987 59.2851C78.0054 60.0478 77.6854 60.2611 77.536 60.3411C76.9815 60.6367 76.3652 60.7975 75.737 60.8105C75.1087 60.8235 74.4863 60.6883 73.92 60.4158C73.7707 60.3465 73.44 60.1491 72.7094 59.4185C71.9734 58.6718 71.0667 57.6318 69.6907 56.0425L69.6 55.9465C68.336 54.4851 67.2534 53.2371 66.2934 52.2771C65.3152 51.2252 64.1599 50.3533 62.88 49.7011C61.1798 48.8845 59.311 48.4802 57.4253 48.521C55.5396 48.5618 53.69 49.0465 52.0267 49.9358C50.7735 50.6416 49.6543 51.5623 48.72 52.6558C47.8134 53.6585 46.784 54.9491 45.5787 56.4691L28.8694 77.5145C28.5196 77.923 28.2558 78.3978 28.0937 78.9106C27.9316 79.4234 27.8746 79.9636 27.9261 80.4989C27.9775 81.0342 28.1364 81.5536 28.3932 82.0261C28.65 82.4987 28.9995 82.9145 29.4207 83.2489C29.8419 83.5833 30.3262 83.8293 30.8446 83.9722C31.3631 84.1152 31.905 84.1521 32.438 84.0808C32.9711 84.0095 33.4843 83.8314 33.9469 83.5573C34.4096 83.2831 34.8122 82.9185 35.1307 82.4851L51.7654 61.5465C53.072 59.8985 53.9307 58.8265 54.6347 58.0478C55.328 57.2851 55.648 57.0718 55.7974 56.9918C56.3519 56.6962 56.9682 56.5354 57.5964 56.5224C58.2247 56.5095 58.8471 56.6447 59.4134 56.9171C59.568 56.9865 59.8987 57.1838 60.624 57.9145C61.3654 58.6611 62.2667 59.7011 63.648 61.2905L63.7334 61.3865C65.0027 62.8478 66.08 64.0958 67.04 65.0558C68.0267 66.0531 69.1147 66.9865 70.4534 67.6318C72.1536 68.4484 74.0224 68.8527 75.9081 68.8119C77.7938 68.7712 79.6434 68.2865 81.3067 67.3971C82.5538 66.6826 83.6717 65.763 84.6134 64.6771C85.52 63.6745 86.5494 62.3838 87.76 60.8638L104.469 39.8185Z" fill="white"/>
</svg>
