<svg width="129" height="128" viewBox="0 0 129 128" fill="none" xmlns="http://www.w3.org/2000/svg">
    <path d="M106.917 47.9998C102.677 26.7465 82.9858 10.6665 59.3432 10.6665C32.5912 10.6665 10.9165 31.2265 10.9165 56.5865C10.9165 68.7732 15.9192 79.8398 24.0845 88.0532C25.8765 89.8665 27.0765 92.3358 26.5912 94.8798C25.8027 99.0167 23.9953 102.892 21.3325 106.155C28.311 107.419 35.5118 106.309 41.7858 103.003C43.9832 101.84 45.0872 101.264 45.8605 101.147C46.4045 101.061 47.1138 101.141 48.2498 101.333" stroke="white" stroke-width="8" stroke-linecap="round" stroke-linejoin="round"/>
    <path d="M58.9165 86.7305C58.9165 102.224 72.0525 114.789 88.2498 114.789C90.1592 114.789 92.0507 114.615 93.9245 114.267C95.2738 114.016 95.9458 113.888 96.4152 113.957C96.8845 114.032 97.5512 114.384 98.8845 115.093C102.65 117.099 107.045 117.808 111.274 117.019C109.655 115.024 108.559 112.658 108.085 110.133C107.791 108.576 108.517 107.067 109.61 105.963C114.703 100.856 117.569 93.9426 117.583 86.7305C117.583 71.2318 104.447 58.6665 88.2498 58.6665C72.0525 58.6665 58.9165 71.2318 58.9165 86.7305Z" stroke="white" stroke-width="8" stroke-linecap="round" stroke-linejoin="round"/>
</svg>
